<svg width="37" height="37" viewBox="0 0 37 37" fill="none" xmlns="http://www.w3.org/2000/svg">
<path d="M32.1681 15.5894C32.1681 25.9868 18.8001 34.8988 18.8001 34.8988C18.8001 34.8988 5.43213 25.9868 5.43213 15.5894C5.43213 12.044 6.84054 8.64382 9.34753 6.13683C11.8545 3.62985 15.2547 2.22144 18.8001 2.22144C22.3455 2.22144 25.7457 3.62985 28.2527 6.13683C30.7597 8.64382 32.1681 12.044 32.1681 15.5894Z" fill="#FF5100" stroke="#FF5100" stroke-width="2" stroke-linecap="round" stroke-linejoin="round"/>
<path d="M18.8 20.0454C21.261 20.0454 23.256 18.0504 23.256 15.5894C23.256 13.1284 21.261 11.1334 18.8 11.1334C16.339 11.1334 14.344 13.1284 14.344 15.5894C14.344 18.0504 16.339 20.0454 18.8 20.0454Z" fill="white" stroke="white" stroke-width="2" stroke-linecap="round" stroke-linejoin="round"/>
</svg>
